<?xml version="1.0" encoding="utf-8"?><svg viewBox="0 0 146 118" xmlns="http://www.w3.org/2000/svg" xmlns:xlink="http://www.w3.org/1999/xlink"><style>:root>svg{display:none}:root>svg:target{display:block}</style><svg viewBox="0 0 118 118" id="advantage-Analytics_icon" xmlns="http://www.w3.org/2000/svg"><path d="M2.28 97.87a7.723 7.723 0 015.504-2.27h5.365V81.599c0-4.066 3.312-7.378 7.377-7.378h7.06c4.066 0 7.378 3.312 7.378 7.377V95.59h5.76V76.849c0-1.22.993-2.212 2.212-2.212 1.22 0 2.211.992 2.211 2.212v18.74h12.96V68.322a2.962 2.962 0 00-2.954-2.955h-7.06a2.962 2.962 0 00-2.956 2.955v1.676c0 1.22-.991 2.211-2.21 2.211a2.213 2.213 0 01-2.212-2.211V68.32c0-4.066 3.312-7.377 7.377-7.377h7.06c4.066 0 7.378 3.311 7.378 7.377v27.27h5.761V41.41c0-4.066 3.312-7.378 7.378-7.378h7.06c4.066 0 7.377 3.312 7.377 7.377v54.18h5.484V7.775C95.59 3.49 99.08 0 103.364 0c2.082 0 4.036.813 5.503 2.28a7.732 7.732 0 012.281 5.504v6.99c0 1.22-.992 2.212-2.211 2.212a2.213 2.213 0 01-2.211-2.211v-7a3.34 3.34 0 00-.982-2.38 3.338 3.338 0 00-2.38-.982 3.356 3.356 0 00-3.352 3.361v90.027c0 1.22-.991 2.211-2.21 2.211H7.773a3.352 3.352 0 00-3.361 3.352 3.365 3.365 0 003.361 3.362H97.8c1.22 0 2.211.991 2.211 2.211v1.289a3.354 3.354 0 003.352 3.361 3.365 3.365 0 003.362-3.361v-1.289c0-1.22.991-2.211 2.211-2.211h1.289c.902 0 1.745-.348 2.38-.982a3.34 3.34 0 00.981-2.38 3.356 3.356 0 00-3.361-3.352h-1.289a2.212 2.212 0 01-2.211-2.21V21.566c0-1.22.991-2.211 2.211-2.211 1.219 0 2.211.992 2.211 2.211V95.65a7.774 7.774 0 016.852 7.715 7.73 7.73 0 01-2.281 5.503 7.789 7.789 0 01-4.63 2.231 7.774 7.774 0 01-7.725 6.902 7.75 7.75 0 01-5.503-2.281 7.79 7.79 0 01-2.222-4.581H7.775c-4.284 0-7.774-3.49-7.774-7.774 0-2.072.813-4.026 2.28-5.493zm28.251-16.272a2.962 2.962 0 00-2.955-2.954h-7.06a2.962 2.962 0 00-2.955 2.954V95.59h12.97V81.598zM85.684 41.41a2.962 2.962 0 00-2.955-2.955h-7.06a2.962 2.962 0 00-2.955 2.955v54.18h12.97V41.41z"/><path d="M79.199 20.377c-1.19 0-2.39-.257-3.47-.763L58.473 40.12a8.224 8.224 0 011.468 4.71c0 4.591-3.728 8.32-8.32 8.32a8.359 8.359 0 01-6.435-3.054l-12.91 5.721c.059.407.089.823.089 1.23 0 4.59-3.729 8.32-8.32 8.32-4.59 0-8.32-3.73-8.32-8.32 0-4.591 3.73-8.32 8.32-8.32a8.359 8.359 0 016.436 3.054l12.91-5.721a8.55 8.55 0 01-.089-1.23c0-4.59 3.728-8.32 8.32-8.32 1.21 0 2.38.259 3.47.764l17.254-20.496a8.223 8.223 0 01-1.468-4.71c0-4.591 3.729-8.32 8.32-8.32 4.59 0 8.32 3.729 8.32 8.32 0 4.581-3.739 8.31-8.32 8.31zM55.519 44.83a3.898 3.898 0 10-7.795.001 3.898 3.898 0 007.796 0zm27.577-32.772a3.898 3.898 0 10-7.795.001 3.898 3.898 0 007.795-.001zM27.943 57.047a3.898 3.898 0 10-3.897 3.897c2.152.01 3.897-1.746 3.897-3.897z"/></svg><svg viewBox="0 0 146 93" id="advantage-LoyalityOfGuests_icon" xmlns="http://www.w3.org/2000/svg"><path d="M98.155 52.392l-12.428-5.499a2.423 2.423 0 01-1.445-2.213v-3.397c4.175-3.311 6.859-8.41 6.859-14.124v-4.782a4.409 4.409 0 002.285-3.856v-.464C93.426 8.1 85.29 0 75.286 0h-4.571c-10.002 0-18.14 8.1-18.14 18.057v4.21c0 1.44.622 2.744 1.707 3.578.184.141.378.266.58.373v.94c0 5.715 2.682 10.813 6.856 14.124v3.398c0 .956-.567 1.825-1.444 2.213l-12.428 5.498c-4.07 1.8-6.7 5.83-6.7 10.263V90.87c0 1.176.957 2.13 2.139 2.13a2.134 2.134 0 002.138-2.13V62.654c0-.247.018-.49.044-.732l5.726 5.7a4.657 4.657 0 011.382 3.322V90.87c0 1.175.958 2.128 2.139 2.128a2.134 2.134 0 002.139-2.128V70.944a8.876 8.876 0 00-2.635-6.332l-6.827-6.796a6.985 6.985 0 012.192-1.534l12.218-5.405 9.061 9.02V90.87c0 1.176.958 2.13 2.14 2.13a2.134 2.134 0 002.138-2.13V59.896l9.06-9.02 12.218 5.406c.84.372 1.578.898 2.193 1.534l-6.827 6.796a8.876 8.876 0 00-2.635 6.332V90.87c0 1.175.958 2.128 2.139 2.128a2.134 2.134 0 002.139-2.128V70.944c0-1.255.49-2.434 1.382-3.322l5.726-5.7c.026.242.043.485.043.732V90.87c0 1.176.958 2.13 2.139 2.13a2.134 2.134 0 002.139-2.13V62.654a11.24 11.24 0 00-6.701-10.262zM73 56.004l-7.95-7.915a6.645 6.645 0 00.946-3.409v-.866A18.112 18.112 0 0073 45.216c2.481 0 4.847-.5 7.004-1.402v.866c0 1.226.341 2.397.946 3.41L73 56.004zm0-15.046c-7.643 0-13.862-6.19-13.862-13.8v-.957c1.335-.526 2.637-1.364 3.884-2.51a2.122 2.122 0 00.121-3.008 2.146 2.146 0 00-3.022-.12c-1.07.983-2.138 1.617-3.176 1.887a.357.357 0 01-.056.01.43.43 0 01-.037-.192v-4.21c0-7.61 6.22-13.8 13.863-13.8h4.571c7.644 0 13.863 6.19 13.863 13.8v.463c0 .07-.042.13-.097.14-12.806 2.518-19.23-2.228-21.397-4.385a2.145 2.145 0 00-3.024 0 2.122 2.122 0 000 3.01c6.64 6.612 16.332 6.731 22.232 6.025v3.848c0 7.608-6.219 13.799-13.862 13.799zm-34.435-.146V36.26c0-5.554-2.9-10.443-7.268-13.256a8.95 8.95 0 00.41-2.672c0-4.938-4.035-8.955-8.996-8.955-4.96 0-8.996 4.018-8.996 8.955 0 .92.14 1.813.41 2.672-4.368 2.814-7.268 7.703-7.268 13.256v4.551c0 5.378 2.719 10.134 6.858 12.984v4.682c0 .924-.515 1.754-1.345 2.167l-7.397 3.681C1.905 65.852 0 68.921 0 72.335v18.536C0 92.046.958 93 2.139 93a2.134 2.134 0 002.138-2.13V73.257l3.484 3.468a4.657 4.657 0 011.383 3.322v10.825c0 1.175.957 2.129 2.138 2.129a2.134 2.134 0 002.139-2.13V80.047c0-2.392-.936-4.64-2.635-6.332l-4.849-4.827c-.023-.023-.049-.044-.072-.066.304-.267.645-.5 1.021-.687l7.397-3.682a6.813 6.813 0 001.06-.659L20.574 69v21.87c0 1.176.957 2.129 2.138 2.129a2.134 2.134 0 002.139-2.129V68.998l5.23-5.205c.328.248.68.47 1.06.66l2.04 1.014a2.14 2.14 0 002.87-.952c.527-1.051.1-2.33-.957-2.855l-2.04-1.016a2.407 2.407 0 01-1.345-2.166v-4.682c4.139-2.85 6.857-7.606 6.857-12.984zM22.711 15.635c2.602 0 4.72 2.107 4.72 4.697 0 .286-.027.565-.076.84a15.87 15.87 0 00-4.644-.693c-1.613 0-3.17.242-4.637.69a4.712 4.712 0 01-.082-.837c0-2.59 2.117-4.697 4.72-4.697zm0 9.102c6.384 0 11.577 5.17 11.577 11.524v.771c-8.904 2.714-14.21-4.029-14.437-4.324a2.142 2.142 0 00-3.223-.228c-2.042 2.032-4.042 3.012-5.486 3.485.159-6.218 5.286-11.228 11.57-11.228zm0 40.369l-4.942-4.92a6.712 6.712 0 00.224-1.709V55.88a15.85 15.85 0 004.718.714c1.643 0 3.228-.25 4.72-.714v2.599c0 .587.078 1.16.222 1.708l-4.942 4.92zm0-12.771c-6.383 0-11.576-5.17-11.576-11.524v-.441c1.705-.39 4.234-1.296 6.872-3.408a19.297 19.297 0 003.966 2.874c2.01 1.09 4.784 2.1 8.174 2.1a18 18 0 004.123-.492c-.332 6.061-5.389 10.89-11.559 10.89zm118.316 7.44l-11.968-5.958a2.407 2.407 0 01-1.345-2.166v-3.017c2.801-2.476 4.571-6.084 4.571-10.098v-2.423l.148.001a2.133 2.133 0 002.138-2.129v-4.55c0-7.448-6.086-13.507-13.568-13.507h-4.571c-7.482 0-13.569 6.06-13.569 13.506v4.551a2.134 2.134 0 002.286 2.125v2.426c0 4.014 1.771 7.622 4.572 10.098v3.017c0 .924-.515 1.754-1.345 2.167a2.124 2.124 0 00-.956 2.856 2.139 2.139 0 002.869.952 6.77 6.77 0 001.06-.659l5.23 5.205v28.699c0 1.176.957 2.129 2.138 2.129a2.134 2.134 0 002.139-2.129v-28.7l5.229-5.205c.329.248.681.471 1.06.66l11.582 5.764-3.513 3.497a8.877 8.877 0 00-2.635 6.332v17.652c0 1.175.958 2.128 2.139 2.128a2.134 2.134 0 002.139-2.128V73.219c0-1.254.49-2.434 1.382-3.322l3.327-3.312c.101.385.157.787.157 1.2V90.87c0 1.175.957 2.128 2.138 2.128A2.134 2.134 0 00146 90.871V67.784c0-3.413-1.905-6.483-4.973-8.01zm-33.886-28.357v-1.984c0-5.1 4.168-9.248 9.291-9.248h4.571c5.123 0 9.291 4.149 9.291 9.248V31.8c-9.297-.5-14.908-4.1-14.962-4.136a2.143 2.143 0 00-2.699.266c-2.046 2.037-4.051 3.017-5.492 3.49zm11.576 26.861l-4.942-4.92a6.682 6.682 0 00.224-1.708v-.453c1.47.545 3.06.844 4.718.844 1.659 0 3.249-.3 4.719-.844v.453c0 .587.079 1.16.223 1.709l-4.942 4.92zm0-10.495c-5.122 0-9.29-4.148-9.29-9.248v-3.432c1.498-.596 3.243-1.543 5.019-3.05 2.246 1.164 6.944 3.174 13.562 3.839v2.643c0 5.1-4.168 9.248-9.291 9.248z"/></svg><svg viewBox="0 0 118 118" id="advantage-Tip_icon" xmlns="http://www.w3.org/2000/svg"><path d="M79.328 75.777c-2.864 0-5.194-1.986-5.194-4.427s2.33-4.427 5.194-4.427 5.194 1.986 5.194 4.427c0 1.284 1.057 2.325 2.36 2.325 1.304 0 2.362-1.041 2.362-2.325 0-4.26-3.224-7.843-7.555-8.816v-1.209c0-1.284-1.058-2.325-2.361-2.325-1.304 0-2.361 1.041-2.361 2.325v1.21c-4.332.972-7.555 4.554-7.555 8.815 0 5.005 4.448 9.077 9.916 9.077 2.864 0 5.194 1.986 5.194 4.428 0 2.441-2.33 4.427-5.194 4.427s-5.194-1.986-5.194-4.427c0-1.284-1.058-2.325-2.361-2.325-1.304 0-2.361 1.04-2.361 2.325 0 4.26 3.223 7.843 7.555 8.816v1.004c0 1.284 1.057 2.325 2.36 2.325 1.304 0 2.362-1.041 2.362-2.325V93.67c4.331-.973 7.555-4.555 7.555-8.816 0-5.006-4.449-9.078-9.916-9.078zm24.897-13.569A30.672 30.672 0 0091.641 51.23c-1.177-.558-2.59-.07-3.155 1.09a2.316 2.316 0 001.107 3.11c8.963 4.248 14.754 13.323 14.754 23.12a25.39 25.39 0 01-3.031 12.023 2.314 2.314 0 00.977 3.152c.353.186.733.274 1.108.274a2.37 2.37 0 002.089-1.236 30.008 30.008 0 003.586-14.213 29.888 29.888 0 00-4.851-16.343zM82.372 48h-.13c-1.062 0-1.923.895-1.923 2 0 1.104.861 2 1.923 2h.121c1.058 0 1.918-.89 1.923-1.99.004-1.105-.852-2.005-1.914-2.01zm-14.301 53.568c-8.963-4.247-14.754-13.322-14.754-23.119 0-4.192 1.048-8.35 3.031-12.023a2.314 2.314 0 00-.977-3.152c-1.152-.605-2.584-.174-3.197.962a30.013 30.013 0 00-3.586 14.213 29.884 29.884 0 004.851 16.343 30.675 30.675 0 0012.584 10.978c.33.156.679.23 1.022.23a2.37 2.37 0 002.133-1.321 2.317 2.317 0 00-1.107-3.111zM74.43 104h-.112c-1.067-.002-1.927.886-1.931 1.99-.005 1.105.852 2.004 1.914 2.01h.129c1.062 0 1.923-.896 1.923-2s-.861-2-1.923-2z"/><path d="M89.285 40.15a10.74 10.74 0 00-1.023-1.905h6c5.845 0 10.601-4.812 10.601-10.727S100.107 16.79 94.261 16.79H75.806a10.753 10.753 0 001.862-6.064C77.668 4.812 72.912 0 67.066 0H10.601C4.757 0 0 4.812 0 10.727s4.756 10.727 10.601 10.727h18.456a10.753 10.753 0 00-1.862 6.064c0 2.248.689 4.337 1.862 6.063h-6.01c-5.846 0-10.602 4.812-10.602 10.727 0 3.397 1.57 6.429 4.014 8.395a10.757 10.757 0 00-4.014 8.396c0 3.397 1.57 6.428 4.014 8.395a10.757 10.757 0 00-4.014 8.395c0 3.397 1.57 6.429 4.014 8.395a10.757 10.757 0 00-4.014 8.396c0 5.915 4.756 10.727 10.602 10.727h27.16C57.364 113.151 67.541 118 78.82 118c21.604 0 39.18-17.784 39.18-39.644 0-18.194-12.176-33.562-28.715-38.206zm4.977-18.695c3.304 0 5.992 2.72 5.992 6.063 0 3.343-2.688 6.063-5.993 6.063H37.797c-3.304 0-5.992-2.72-5.992-6.063 0-3.343 2.688-6.064 5.992-6.064h56.465zm-83.66-4.664c-3.305 0-5.993-2.72-5.993-6.064 0-3.343 2.688-6.063 5.992-6.063h56.465c3.305 0 5.992 2.72 5.992 6.063 0 3.343-2.688 6.064-5.992 6.064H10.601zm12.445 21.454h56.465c.928 0 1.817.218 2.614.61a39.038 39.038 0 00-3.306-.143c-10.819 0-20.628 4.46-27.725 11.66H23.047c-3.304 0-5.992-2.72-5.992-6.064 0-3.343 2.688-6.063 5.992-6.063zm0 16.79h24.11a39.722 39.722 0 00-5.923 12.127H23.046c-3.304 0-5.992-2.72-5.992-6.063 0-3.343 2.688-6.063 5.992-6.063zm0 16.79h17.128a40.2 40.2 0 00-.142 12.127H23.047c-3.304 0-5.992-2.72-5.992-6.063 0-3.343 2.688-6.063 5.992-6.063zm0 28.918c-3.304 0-5.992-2.72-5.992-6.063 0-3.344 2.688-6.064 5.992-6.064h17.927a39.708 39.708 0 005.53 12.127H23.047zm55.773 12.593c-19.062 0-34.57-15.692-34.57-34.98 0-19.288 15.508-34.98 34.57-34.98s34.571 15.692 34.571 34.98c0 19.288-15.509 34.98-34.57 34.98z"/></svg><svg viewBox="0 0 84 57" id="cart" xmlns="http://www.w3.org/2000/svg"><path d="M74.065.174H9.935C4.985.174.957 4.195.957 9.138v38.42c0 4.942 4.027 8.964 8.978 8.964h64.13c4.95 0 8.978-4.022 8.978-8.965V9.138c0-4.943-4.027-8.964-8.978-8.964zM9.935 5.296h64.13a3.85 3.85 0 013.848 3.842v5.123H6.087V9.138a3.85 3.85 0 013.848-3.842zM74.065 51.4H9.935a3.85 3.85 0 01-3.848-3.842V19.383h71.826v28.174a3.85 3.85 0 01-3.848 3.842z"/><path d="M18.913 43.715h-2.565a2.563 2.563 0 01-2.565-2.56v-2.562a2.563 2.563 0 012.565-2.562h2.565a2.563 2.563 0 012.565 2.562v2.561a2.563 2.563 0 01-2.565 2.561z"/></svg><svg viewBox="0 0 84 84" id="free-icon" xmlns="http://www.w3.org/2000/svg"><path d="M79.859 39.908L44.733 4.783A13.146 13.146 0 0035.5.957H8.42C4.304.957.956 4.303.956 8.419v27.079a12.98 12.98 0 003.826 9.235l35.125 35.126a10.812 10.812 0 007.689 3.184c2.9 0 5.633-1.13 7.688-3.184L79.86 55.285a10.79 10.79 0 003.184-7.688 10.79 10.79 0 00-3.184-7.689zm-2.638 12.74L52.647 77.22c-2.703 2.696-7.397 2.696-10.1 0L7.42 42.095a9.268 9.268 0 01-2.733-6.597V8.419a3.735 3.735 0 013.73-3.731H35.5c2.456 0 4.861.996 6.596 2.733L77.22 42.547a7.094 7.094 0 012.091 5.05c0 1.91-.743 3.702-2.091 5.05z"/><path d="M44.904 47.542a1.86 1.86 0 001.32.547 1.865 1.865 0 001.32-3.185l-2.64-2.639 2.638-2.639 3.957 3.96a1.865 1.865 0 102.639-2.639L48.86 35.67a1.864 1.864 0 00-2.638 0L35.671 46.223a1.865 1.865 0 000 2.638l5.276 5.277a1.86 1.86 0 001.32.546 1.865 1.865 0 001.32-3.185l-3.959-3.956 2.638-2.639 2.638 2.638zm14.51-1.319a1.865 1.865 0 00-2.638 0L46.223 56.776a1.865 1.865 0 000 2.638l5.276 5.278a1.86 1.86 0 001.32.546 1.865 1.865 0 001.32-3.185l-3.958-3.958 2.638-2.638 2.638 2.638a1.86 1.86 0 001.319.546 1.865 1.865 0 001.32-3.185l-2.64-2.637 2.639-2.639 3.957 3.958A1.865 1.865 0 1064.69 51.5l-5.276-5.277zm-32.98-19.787a1.865 1.865 0 000-2.638l-2.638-2.64 2.638-2.638 3.957 3.957a1.865 1.865 0 102.638-2.638l-5.276-5.276c-.7-.7-1.939-.7-2.638 0l-5.274 5.274-.003.002v.001l-5.276 5.277a1.865 1.865 0 102.639 2.638l3.957-3.958 2.638 2.639a1.86 1.86 0 001.319.546 1.86 1.86 0 001.319-.546zM37.296 37.3a5.55 5.55 0 003.651-1.631 5.601 5.601 0 000-7.914l-2.638-2.638a1.865 1.865 0 00-2.638 0l-5.229 5.227c-.018.016-.036.032-.051.049a.42.42 0 00-.047.05l-5.23 5.226a1.865 1.865 0 102.639 2.638l3.957-3.957 1.323 1.317a1.874 1.874 0 010 2.64l-2.642 2.64a1.865 1.865 0 102.638 2.638l2.642-2.64a5.58 5.58 0 001.625-3.645zm-.306-8.226l1.319 1.319a1.865 1.865 0 01-1.32 3.184h-.003c-.495 0-.962-.193-1.315-.548l-1.32-1.317 2.639-2.638z"/></svg><svg viewBox="0 0 18 18" id="instagram_icon" xmlns="http://www.w3.org/2000/svg"><path d="M9.074 11.84A2.844 2.844 0 016.234 9a2.843 2.843 0 012.84-2.839 2.842 2.842 0 012.84 2.84 2.843 2.843 0 01-2.84 2.84zm0-7.273A4.438 4.438 0 004.64 9a4.438 4.438 0 004.433 4.433A4.438 4.438 0 0013.507 9a4.438 4.438 0 00-4.433-4.433z"/><path d="M5.407 1.694a3.717 3.717 0 00-3.714 3.713v7.186a3.717 3.717 0 003.714 3.713h7.186a3.717 3.717 0 003.714-3.713V5.407a3.717 3.717 0 00-3.714-3.713H5.407zM12.593 18H5.407A5.413 5.413 0 010 12.593V5.407A5.413 5.413 0 015.407 0h7.186A5.413 5.413 0 0118 5.407v7.186A5.413 5.413 0 0112.593 18z"/><path fill-rule="evenodd" clip-rule="evenodd" d="M5.407 1.694a3.717 3.717 0 00-3.714 3.713v7.186a3.717 3.717 0 003.714 3.713h7.186a3.717 3.717 0 003.714-3.713V5.407a3.717 3.717 0 00-3.714-3.713H5.407zm7.303 2.575a1.055 1.055 0 112.11 0 1.055 1.055 0 01-2.11 0zM4.64 9a4.438 4.438 0 014.434-4.433A4.438 4.438 0 0113.507 9a4.438 4.438 0 01-4.433 4.433A4.438 4.438 0 014.64 9z"/></svg><svg viewBox="0 0 84 84" id="parcetage-icon" xmlns="http://www.w3.org/2000/svg"><path d="M80.045 26.56a40.84 40.84 0 00-9.01-13.595 40.834 40.834 0 00-13.595-9.01A41.292 41.292 0 0041.972.957 41.095 41.095 0 0026.53 3.962a40.872 40.872 0 00-13.565 9.003A40.872 40.872 0 003.961 26.53 41.11 41.11 0 00.957 41.971a41.3 41.3 0 002.998 15.47c2 4.95 5.007 9.591 9.01 13.594a40.833 40.833 0 0013.594 9.01 41.294 41.294 0 0015.47 2.998c5.25 0 10.5-1.002 15.441-3.005a40.875 40.875 0 0013.565-9.003 40.876 40.876 0 009.004-13.565 41.112 41.112 0 003.005-15.442c0-5.257-.998-10.517-3-15.468zm-5.08 28.853a35.403 35.403 0 01-7.802 11.75 35.399 35.399 0 01-11.75 7.802 35.636 35.636 0 01-13.385 2.604c-4.565 0-9.13-.867-13.417-2.6a35.353 35.353 0 01-11.774-7.805A35.344 35.344 0 019.03 55.389a35.82 35.82 0 01-2.6-13.417c0-4.555.87-9.108 2.605-13.385a35.392 35.392 0 017.8-11.75 35.396 35.396 0 0111.752-7.802 35.635 35.635 0 0113.384-2.603c4.566 0 9.13.866 13.417 2.599a35.353 35.353 0 0111.775 7.806 35.35 35.35 0 017.805 11.774 35.823 35.823 0 012.6 13.417c0 4.555-.87 9.107-2.604 13.385z"/><path d="M59.046 24.954a2.679 2.679 0 00-3.788 0L24.954 55.258a2.679 2.679 0 003.788 3.788l30.304-30.304a2.679 2.679 0 000-3.788zm-18.527-2.021a8.022 8.022 0 00-1.765-2.66 8.022 8.022 0 00-5.682-2.353 8.021 8.021 0 00-5.682 2.354 8.02 8.02 0 00-2.354 5.681 8.025 8.025 0 002.354 5.682 8.02 8.02 0 005.681 2.354 8.02 8.02 0 005.682-2.354 8.02 8.02 0 002.354-5.682 8.044 8.044 0 00-.588-3.022zm-4.965 4.032a2.66 2.66 0 01-.588.884 2.66 2.66 0 01-1.894.785 2.658 2.658 0 01-1.894-.785 2.66 2.66 0 01-.785-1.894 2.66 2.66 0 01.784-1.894 2.657 2.657 0 011.895-.784 2.66 2.66 0 011.894.784 2.66 2.66 0 01.784 1.894c0 .345-.066.69-.196 1.01zm24.607 26.298a8.025 8.025 0 00-1.765-2.66 8.02 8.02 0 00-5.682-2.353 8.022 8.022 0 00-5.682 2.354 8.018 8.018 0 00-2.354 5.682 8.022 8.022 0 002.354 5.682 8.02 8.02 0 005.682 2.353 8.02 8.02 0 005.682-2.354 8.022 8.022 0 002.353-5.681 8.044 8.044 0 00-.588-3.023zm-4.964 4.032c-.13.32-.323.617-.589.884a2.658 2.658 0 01-1.894.785 2.658 2.658 0 01-1.894-.785 2.658 2.658 0 01-.784-1.894 2.66 2.66 0 01.785-1.894 2.658 2.658 0 011.893-.784 2.666 2.666 0 011.894.784 2.66 2.66 0 01.785 1.894c0 .346-.066.69-.196 1.01z"/></svg><svg viewBox="0 0 30 18" id="vk_icon" xmlns="http://www.w3.org/2000/svg"><path fill-rule="evenodd" clip-rule="evenodd" d="M29.31 1.208c.21-.71 0-1.208-.985-1.208h-3.283c-.844 0-1.22.45-1.43.947 0 0-1.665 4.121-4.033 6.774-.774.782-1.102 1.018-1.524 1.018-.212 0-.516-.236-.516-.947V1.208C17.539.355 17.304 0 16.6 0h-5.159c-.515 0-.844.403-.844.758 0 .805 1.173.995 1.313 3.221v4.879c0 1.066-.187 1.255-.61 1.255-1.101 0-3.821-4.12-5.416-8.858C5.557.38 5.252 0 4.408 0H1.125C.188 0 0 .45 0 .947c0 .877 1.102 5.235 5.182 10.99C7.902 15.868 11.724 18 15.194 18c2.087 0 2.345-.474 2.345-1.279v-2.984c0-.947.187-1.137.867-1.137.493 0 1.313.237 3.26 2.132C23.892 16.982 24.267 18 25.51 18h3.282c.938 0 1.407-.474 1.126-1.397-.305-.924-1.36-2.274-2.767-3.885-.774-.923-1.923-1.894-2.25-2.392-.493-.64-.353-.923 0-1.468 0-.024 4.009-5.708 4.407-7.65z"/></svg><svg viewBox="0 0 26 18" id="youtube_icon" xmlns="http://www.w3.org/2000/svg"><path d="M17.42 9.503l-6.543 3.2c-.255.138-1.127-.045-1.127-.334V5.797c0-.292.879-.475 1.135-.33l6.263 3.37c.262.148.537.523.272.666zM26 5.643C26 2.526 23.445 0 20.294 0H5.705C2.555 0 0 2.527 0 5.642v6.714C0 15.473 2.554 18 5.705 18h14.59C23.444 18 26 15.473 26 12.356V5.642z"/></svg></svg>