<svg width="84" height="57" viewBox="0 0 84 57" fill="none" xmlns="http://www.w3.org/2000/svg">
<path d="M74.0652 0.173828H9.9348C4.98425 0.173828 0.956543 4.19533 0.956543 9.13825V47.5572C0.956543 52.5001 4.98425 56.5217 9.9348 56.5217H74.0652C79.0158 56.5217 83.0435 52.5001 83.0435 47.5572V9.13825C83.0435 4.19533 79.0158 0.173828 74.0652 0.173828ZM9.9348 5.29636H74.0652C76.1868 5.29636 77.9131 7.01993 77.9131 9.13825V14.2608H6.08698V9.13825C6.08698 7.01993 7.81321 5.29636 9.9348 5.29636ZM74.0652 51.3991H9.9348C7.81321 51.3991 6.08698 49.6756 6.08698 47.5572V19.3833H77.9131V47.5572C77.9131 49.6756 76.1868 51.3991 74.0652 51.3991Z" fill="#1ABC0F"/>
<path d="M18.9131 43.7153H16.3478C14.9312 43.7153 13.7826 42.5685 13.7826 41.1541V38.5928C13.7826 37.1783 14.9312 36.0315 16.3478 36.0315H18.9131C20.3297 36.0315 21.4783 37.1783 21.4783 38.5928V41.1541C21.4783 42.5685 20.3297 43.7153 18.9131 43.7153Z" fill="#1ABC0F"/>
</svg>
