<svg width="84" height="84" viewBox="0 0 84 84" fill="none" xmlns="http://www.w3.org/2000/svg">
<path d="M79.8589 39.9085L44.7329 4.78251C42.3025 2.35208 38.9393 0.956543 35.4995 0.956543H8.41906C4.3052 0.956543 0.956543 4.30328 0.956543 8.41906V35.4978C0.956543 38.985 2.3157 42.2644 4.78251 44.7329L39.9085 79.8589C41.9636 81.9122 44.6964 83.0435 47.5968 83.0435C50.4972 83.0435 53.23 81.9121 55.2851 79.8589L79.8587 55.2853C81.9138 53.2338 83.0433 50.5028 83.0433 47.597C83.0433 44.6911 81.914 41.9599 79.8589 39.9085ZM77.2209 52.6472L52.6472 77.2209C49.9436 79.9173 45.2503 79.9173 42.5467 77.2209L7.42055 42.0947C5.65702 40.3312 4.68771 37.9882 4.68771 35.4976V8.41906C4.68771 6.36222 6.36029 4.68789 8.41888 4.68789H35.4995C37.9555 4.68789 40.3604 5.68448 42.0947 7.42072L77.2207 42.5467C78.569 43.8948 79.3123 45.6876 79.3123 47.597C79.3123 49.5062 78.569 51.2989 77.2209 52.6472Z" fill="#1ABC0F"/>
<path d="M44.9042 47.5423C45.2685 47.9066 45.7458 48.0889 46.2233 48.0889C46.7006 48.0889 47.1779 47.9066 47.5424 47.5423C48.2712 46.8135 48.2712 45.6329 47.5424 44.9043L44.9036 42.2655L47.5424 39.6263L51.4995 43.5852C52.2283 44.314 53.4089 44.314 54.1376 43.5852C54.8664 42.8563 54.8664 41.6758 54.1376 40.9471L48.8613 35.6691C48.5115 35.3193 48.0379 35.1226 47.5422 35.1226C47.0465 35.1226 46.5729 35.3193 46.2231 35.6691L35.6708 46.2234C34.942 46.9522 34.942 48.1328 35.6708 48.8614L40.947 54.1377C41.3113 54.502 41.7888 54.6842 42.2661 54.6842C42.7434 54.6842 43.2207 54.502 43.5852 54.1377C44.3141 53.4088 44.3141 52.2283 43.5852 51.4996L39.6281 47.5425L42.266 44.9041L44.9042 47.5423Z" fill="#1ABC0F"/>
<path d="M59.4136 46.2232C58.6848 45.4944 57.5042 45.4944 56.7756 46.2232L46.2233 56.7755C45.4945 57.5044 45.4945 58.6849 46.2233 59.4136L51.4995 64.6916C51.8638 65.0559 52.3413 65.2381 52.8186 65.2381C53.2959 65.2381 53.7732 65.0559 54.1377 64.6916C54.8666 63.9628 54.8666 62.7822 54.1377 62.0535L50.1806 58.0947L52.8186 55.4566L55.4567 58.0947C55.821 58.459 56.2985 58.6412 56.7758 58.6412C57.2531 58.6412 57.7304 58.459 58.0949 58.0947C58.8237 57.3658 58.8237 56.1853 58.0949 55.4566L55.4568 52.8186L58.0949 50.1805L62.052 54.1377C62.7808 54.8665 63.9614 54.8665 64.6901 54.1377C65.4189 53.4089 65.4189 52.2283 64.6901 51.4996L59.4136 46.2232Z" fill="#1ABC0F"/>
<path d="M26.4339 26.4357C27.1627 25.7069 27.1627 24.5263 26.4339 23.7976L23.7959 21.1582L26.4339 18.5196L30.391 22.4768C31.1199 23.2056 32.3004 23.2056 33.0291 22.4768C33.7579 21.748 33.7579 20.5674 33.0291 19.8387L27.7528 14.5625C27.0532 13.8629 25.8144 13.8629 25.1148 14.5625L19.8413 19.8368L19.8385 19.8386L19.8377 19.8403L14.5625 25.1166C13.8337 25.8454 13.8337 27.026 14.5625 27.7546C14.9268 28.1189 15.4043 28.3012 15.8816 28.3012C16.3589 28.3012 16.8362 28.1189 17.2007 27.7546L21.158 23.7966L23.7959 26.4357C24.1602 26.8 24.6377 26.9822 25.115 26.9822C25.5921 26.9822 26.0694 26.8 26.4339 26.4357Z" fill="#1ABC0F"/>
<path d="M37.296 37.2996C38.677 37.2267 39.9632 36.6528 40.947 35.669C43.1296 33.4864 43.1296 29.9373 40.947 27.7547L38.309 25.1167C37.5802 24.3879 36.3996 24.3879 35.671 25.1167L30.4421 30.3436C30.4239 30.3601 30.4057 30.3765 30.391 30.3928C30.3728 30.4092 30.3582 30.4257 30.3436 30.4439L25.1148 35.669C24.386 36.3978 24.386 37.5784 25.1148 38.3071C25.8436 39.0359 27.0242 39.0359 27.7528 38.3071L31.71 34.3499L33.0327 35.6671C33.7579 36.3959 33.7579 37.5802 33.0327 38.3071L30.391 40.947C29.6622 41.6739 29.6622 42.8564 30.391 43.5851C30.7554 43.9494 31.2328 44.1316 31.7101 44.1316C32.1874 44.1316 32.6648 43.9494 33.0292 43.5851L35.671 40.9451C36.6801 39.934 37.223 38.6277 37.296 37.2996ZM36.9899 29.0737L38.309 30.3928C39.0378 31.1197 39.0378 32.3039 38.309 33.0308C37.9555 33.3824 37.4891 33.5774 36.9899 33.5774H36.9862C36.4907 33.5774 36.0243 33.3843 35.6708 33.0291L34.3517 31.7119L36.9899 29.0737Z" fill="#1ABC0F"/>
</svg>
