<svg width="84" height="84" viewBox="0 0 84 84" fill="none" xmlns="http://www.w3.org/2000/svg">
<path d="M80.0449 26.5597C78.0445 21.6091 75.0378 16.9677 71.0348 12.9653C67.0324 8.96243 62.3909 5.95551 57.4404 3.95512C52.4892 1.95409 47.2292 0.956543 41.9715 0.956543C36.7211 0.956543 31.4706 1.95842 26.5297 3.9617C21.5894 5.96417 16.959 8.9706 12.965 12.9653C8.97044 16.9592 5.96385 21.5896 3.96137 26.53C1.95842 31.4706 0.956543 36.721 0.956543 41.9713C0.956543 47.2291 1.95409 52.489 3.9548 57.4404C5.95519 62.3909 8.96195 67.0325 12.965 71.0349C16.9673 75.0378 21.6088 78.0447 26.5593 80.0451C31.5105 82.046 36.7705 83.0433 42.0282 83.0433C47.2786 83.0433 52.5291 82.0415 57.47 80.0384C62.4103 78.0359 67.0407 75.0294 71.0348 71.0348C75.0294 67.0407 78.036 62.4103 80.0385 57.47C82.0416 52.5293 83.0435 47.2789 83.0437 42.0282C83.0435 36.7708 82.046 31.5107 80.0449 26.5597ZM74.9652 55.4131C73.2298 59.6912 70.633 63.6937 67.1635 67.1637C63.6936 70.6331 59.691 73.2299 55.4131 74.965C51.1357 76.6994 46.5826 77.5688 42.0284 77.5688C37.4628 77.5688 32.8983 76.7021 28.611 74.9693C24.3233 73.2357 20.3126 70.6394 16.8365 67.1638C13.3608 63.6877 10.7643 59.6771 9.03105 55.3892C7.29824 51.1019 6.43152 46.5373 6.43168 41.9716C6.43168 37.4174 7.30129 32.8645 9.03553 28.5871C10.7704 24.3092 13.3672 20.3066 16.8368 16.8367C20.3068 13.3672 24.3093 10.7704 28.5875 9.03537C32.8648 7.30097 37.4179 6.43152 41.9721 6.43152C46.5377 6.43152 51.1022 7.29808 55.3895 9.03105C59.6773 10.7647 63.688 13.361 67.164 16.8365C70.6397 20.3127 73.236 24.3233 74.9695 28.611C76.7023 32.8983 77.569 37.4628 77.569 42.0284C77.569 46.5825 76.6996 51.1354 74.9652 55.4131Z" fill="#1ABC0F"/>
<path d="M59.0459 24.9543C57.9999 23.9083 56.304 23.9083 55.2579 24.9543L24.9541 55.258C23.9082 56.3041 23.9082 57.9999 24.9541 59.046C26.0003 60.0921 27.6961 60.0921 28.7422 59.046L59.0461 28.7421C60.0919 27.6962 60.0919 26.0001 59.0459 24.9543Z" fill="#1ABC0F"/>
<path d="M40.5186 22.9328C40.1261 21.9638 39.5333 21.0524 38.7536 20.2732C37.9746 19.4935 37.0631 18.9008 36.0939 18.5081C35.1243 18.1152 34.0974 17.9196 33.0715 17.9196C32.0455 17.9196 31.0187 18.1152 30.049 18.5081C29.08 18.9006 28.1685 19.4935 27.3894 20.2732C26.6097 21.052 26.017 21.9636 25.6243 22.9328C25.2314 23.9025 25.0358 24.9294 25.0358 25.9553C25.0358 26.9812 25.2314 28.0081 25.6243 28.9777C26.0168 29.9468 26.6099 30.8582 27.3894 31.6374C28.1684 32.4171 29.0798 33.0098 30.049 33.4024C31.0187 33.7954 32.0455 33.991 33.0715 33.991C34.0974 33.991 35.1243 33.7954 36.0939 33.4024C37.063 33.01 37.9744 32.4171 38.7536 31.6374C39.5333 30.8584 40.126 29.9469 40.5186 28.9777C40.9116 28.0081 41.1072 26.9812 41.1072 25.9553C41.1072 24.9294 40.9117 23.9025 40.5186 22.9328ZM35.5541 26.9645C35.4236 27.2852 35.232 27.5823 34.9656 27.8494C34.6986 28.1158 34.4015 28.3074 34.0809 28.4379C33.7607 28.568 33.4167 28.6339 33.0716 28.6339C32.7265 28.6339 32.3826 28.5678 32.0624 28.4379C31.7417 28.3074 31.4446 28.1158 31.1777 27.8494C30.9112 27.5824 30.7197 27.2853 30.5891 26.9647C30.4591 26.6445 30.3932 26.3005 30.3932 25.9554C30.3931 25.6103 30.4591 25.2662 30.589 24.946C30.7195 24.6254 30.9111 24.3283 31.1775 24.0613C31.4446 23.7949 31.7416 23.6031 32.0624 23.4728C32.3826 23.3428 32.7266 23.2769 33.0716 23.2769C33.4168 23.2769 33.7607 23.3429 34.0809 23.4728C34.4015 23.6033 34.6986 23.7949 34.9656 24.0613C35.232 24.3283 35.4236 24.6254 35.5541 24.946C35.6842 25.2662 35.75 25.6103 35.75 25.9553C35.75 26.3003 35.684 26.6444 35.5541 26.9645Z" fill="#1ABC0F"/>
<path d="M60.161 53.2631C59.7685 52.2941 59.1754 51.3827 58.3959 50.6035C57.6171 49.8238 56.7055 49.2311 55.7363 48.8384C54.7666 48.4455 53.7398 48.2499 52.7138 48.2499C51.6879 48.2499 50.661 48.4455 49.6914 48.8384C48.7223 49.2309 47.8109 49.8238 47.0317 50.6035C46.252 51.3823 45.6593 52.294 45.2667 53.2631C44.8737 54.2328 44.6781 55.2597 44.6781 56.2856C44.6781 57.3115 44.8737 58.3384 45.2667 59.3081C45.6592 60.2771 46.252 61.1885 47.0317 61.9677C47.8107 62.7474 48.7222 63.3401 49.6914 63.7327C50.661 64.1257 51.6879 64.3213 52.7138 64.3213C53.7398 64.3213 54.7666 64.1257 55.7363 63.7327C56.7053 63.3403 57.6168 62.7474 58.3959 61.9677C59.1756 61.1887 59.7683 60.2772 60.161 59.3081C60.5539 58.3384 60.7495 57.3115 60.7495 56.2856C60.7495 55.2597 60.5541 54.2328 60.161 53.2631ZM55.1966 57.2945C55.0661 57.6152 54.8745 57.9123 54.6081 58.1792C54.3411 58.4457 54.0441 58.6373 53.7234 58.7678C53.4032 58.8978 53.0592 58.9637 52.7141 58.9637C52.369 58.9637 52.0251 58.8976 51.7049 58.7678C51.3842 58.6373 51.0872 58.4457 50.8202 58.1792C50.5538 57.9123 50.3622 57.6152 50.2317 57.2945C50.1016 56.9743 50.0356 56.6303 50.0357 56.2853C50.0357 55.9401 50.1018 55.5962 50.2317 55.276C50.3622 54.9554 50.5538 54.6583 50.8202 54.3913C51.0872 54.1249 51.3842 53.9333 51.7051 53.8028C52.0252 53.6728 52.3693 53.6069 52.7143 53.6069C53.0595 53.6069 53.4034 53.6729 53.7236 53.8028C54.0439 53.9333 54.3408 54.1249 54.6081 54.3913C54.8745 54.6583 55.0661 54.9554 55.1966 55.276C55.3267 55.5962 55.3926 55.9403 55.3926 56.2853C55.3926 56.6305 55.3265 56.9745 55.1966 57.2945Z" fill="#1ABC0F"/>
</svg>
